HIERARCHY
ROOT	RokokoGuy_Hips
{
	OFFSET	0.000	0.000	0.000
	CHANNELS	6	Xposition	Yposition	Zposition	Yrotation	Xrotation	Zrotation
	JOINT	RokokoGuy_LeftUpLeg
	{
		OFFSET	9.374	-0.000	0.020
		CHANNELS	3	Yrotation	Xrotation	Zrotation
		JOINT	RokokoGuy_LeftLeg
		{
			OFFSET	-0.000	-44.979	-0.000
			CHANNELS	3	Yrotation	Xrotation	Zrotation
			JOINT	RokokoGuy_LeftFoot
			{
				OFFSET	0.000	-42.021	-0.000
				CHANNELS	3	Yrotation	Xrotation	Zrotation
				JOINT	RokokoGuy_LeftToe
				{
					OFFSET	-0.000	-15.902	9.693
					CHANNELS	3	Yrotation	Xrotation	Zrotation
					End Site
					{
						OFFSET	0.000	-7.786	0.000
					}
				}
			}
		}
	}
	JOINT	RokokoGuy_RightUpLeg
	{
		OFFSET	-9.375	-0.000	0.020
		CHANNELS	3	Yrotation	Xrotation	Zrotation
		JOINT	RokokoGuy_RightLeg
		{
			OFFSET	0.000	-44.979	0.000
			CHANNELS	3	Yrotation	Xrotation	Zrotation
			JOINT	RokokoGuy_RightFoot
			{
				OFFSET	-0.000	-42.021	0.000
				CHANNELS	3	Yrotation	Xrotation	Zrotation
				JOINT	RokokoGuy_RightToe
				{
					OFFSET	-0.000	-15.902	9.693
					CHANNELS	3	Yrotation	Xrotation	Zrotation
					End Site
					{
						OFFSET	0.000	-7.786	0.000
					}
				}
			}
		}
	}
	JOINT	RokokoGuy_Spine
	{
		OFFSET	-0.000	9.639	0.000
		CHANNELS	3	Yrotation	Xrotation	Zrotation
		JOINT	RokokoGuy_Spine2
		{
			OFFSET	0.000	-27.279	-0.000
			CHANNELS	3	Yrotation	Xrotation	Zrotation
			JOINT	RokokoGuy_LeftShoulder
			{
				OFFSET	-3.511	-26.082	0.021
				CHANNELS	3	Yrotation	Xrotation	Zrotation
				JOINT	RokokoGuy_LeftArm
				{
					OFFSET	0.000	-21.504	0.000
					CHANNELS	3	Yrotation	Xrotation	Zrotation
					JOINT	RokokoGuy_LeftForeArm
					{
						OFFSET	-0.000	-27.370	-0.000
						CHANNELS	3	Yrotation	Xrotation	Zrotation
						JOINT	RokokoGuy_LeftHand
						{
							OFFSET	-0.000	-24.640	-0.000
							CHANNELS	3	Yrotation	Xrotation	Zrotation
							End Site
							{
								OFFSET	-0.000	-17.990	0.000
							}
							JOINT	RokokoGuy_LeftIndex01
							{
								OFFSET	2.865	-8.306	0.000
								CHANNELS	3	Yrotation	Xrotation	Zrotation
								JOINT	RokokoGuy_LeftIndex02
								{
									OFFSET	-0.000	-3.912	0.000
									CHANNELS	3	Yrotation	Xrotation	Zrotation
									JOINT	RokokoGuy_LeftIndex03
									{
										OFFSET	0.000	-2.512	0.000
										CHANNELS	3	Yrotation	Xrotation	Zrotation
										End Site
										{
											OFFSET	0.000	-2.051	0.000
										}
									}
								}
							}
							JOINT	RokokoGuy_LeftMiddle01
							{
								OFFSET	0.881	-8.915	0.000
								CHANNELS	3	Yrotation	Xrotation	Zrotation
								JOINT	RokokoGuy_LeftMiddle02
								{
									OFFSET	-0.000	-4.036	0.000
									CHANNELS	3	Yrotation	Xrotation	Zrotation
									JOINT	RokokoGuy_LeftMiddle03
									{
										OFFSET	0.000	-2.608	0.000
										CHANNELS	3	Yrotation	Xrotation	Zrotation
										End Site
										{
											OFFSET	0.000	-2.530	0.000
										}
									}
								}
							}
							JOINT	RokokoGuy_LeftPinky01
							{
								OFFSET	-2.613	-8.003	0.000
								CHANNELS	3	Yrotation	Xrotation	Zrotation
								JOINT	RokokoGuy_LeftPinky02
								{
									OFFSET	-0.000	-2.860	0.000
									CHANNELS	3	Yrotation	Xrotation	Zrotation
									JOINT	RokokoGuy_LeftPinky03
									{
										OFFSET	0.000	-1.720	0.000
										CHANNELS	3	Yrotation	Xrotation	Zrotation
										End Site
										{
											OFFSET	0.000	-1.976	0.000
										}
									}
								}
							}
							JOINT	RokokoGuy_LeftRing01
							{
								OFFSET	-0.906	-8.765	0.000
								CHANNELS	3	Yrotation	Xrotation	Zrotation
								JOINT	RokokoGuy_LeftRing02
								{
									OFFSET	-0.000	-3.491	0.000
									CHANNELS	3	Yrotation	Xrotation	Zrotation
									JOINT	RokokoGuy_LeftRing03
									{
										OFFSET	0.000	-2.373	0.000
										CHANNELS	3	Yrotation	Xrotation	Zrotation
										End Site
										{
											OFFSET	0.000	-2.368	0.000
										}
									}
								}
							}
							JOINT	RokokoGuy_LeftThumb01
							{
								OFFSET	2.146	-2.555	2.160
								CHANNELS	3	Yrotation	Xrotation	Zrotation
								JOINT	RokokoGuy_LeftThumb02
								{
									OFFSET	0.000	-3.912	-0.000
									CHANNELS	3	Yrotation	Xrotation	Zrotation
									JOINT	RokokoGuy_LeftThumb03
									{
										OFFSET	0.000	-2.512	0.000
										CHANNELS	3	Yrotation	Xrotation	Zrotation
										End Site
										{
											OFFSET	0.000	-2.704	-0.000
										}
									}
								}
							}
						}
					}
				}
			}
			JOINT	RokokoGuy_Neck
			{
				OFFSET	-0.000	-26.082	0.015
				CHANNELS	3	Yrotation	Xrotation	Zrotation
				JOINT	RokokoGuy_Head
				{
					OFFSET	-0.000	-9.000	0.006
					CHANNELS	3	Yrotation	Xrotation	Zrotation
					End Site
					{
						OFFSET	-0.000	-21.000	-0.001
					}
				}
			}
			JOINT	RokokoGuy_RightShoulder
			{
				OFFSET	3.511	-26.082	0.021
				CHANNELS	3	Yrotation	Xrotation	Zrotation
				JOINT	RokokoGuy_RightArm
				{
					OFFSET	-0.000	-21.421	-1.874
					CHANNELS	3	Yrotation	Xrotation	Zrotation
					JOINT	RokokoGuy_RightForeArm
					{
						OFFSET	0.000	-27.370	0.000
						CHANNELS	3	Yrotation	Xrotation	Zrotation
						JOINT	RokokoGuy_RightHand
						{
							OFFSET	-0.000	-24.640	-0.000
							CHANNELS	3	Yrotation	Xrotation	Zrotation
							End Site
							{
								OFFSET	-0.000	-17.990	0.000
							}
							JOINT	RokokoGuy_RightIndex005
							{
								OFFSET	-2.865	-8.306	0.000
								CHANNELS	3	Yrotation	Xrotation	Zrotation
								JOINT	RokokoGuy_RightIndex006
								{
									OFFSET	-0.000	-3.913	0.000
									CHANNELS	3	Yrotation	Xrotation	Zrotation
									JOINT	RokokoGuy_RightIndex007
									{
										OFFSET	0.000	-2.512	0.000
										CHANNELS	3	Yrotation	Xrotation	Zrotation
										End Site
										{
											OFFSET	0.000	-2.051	0.000
										}
									}
								}
							}
							JOINT	RokokoGuy_RightMiddle004
							{
								OFFSET	-0.881	-8.915	0.000
								CHANNELS	3	Yrotation	Xrotation	Zrotation
								JOINT	RokokoGuy_RightMiddle005
								{
									OFFSET	-0.000	-4.036	0.000
									CHANNELS	3	Yrotation	Xrotation	Zrotation
									JOINT	RokokoGuy_RightMiddle006
									{
										OFFSET	0.000	-2.608	0.000
										CHANNELS	3	Yrotation	Xrotation	Zrotation
										End Site
										{
											OFFSET	0.000	-2.530	0.000
										}
									}
								}
							}
							JOINT	RokokoGuy_RightPinky004
							{
								OFFSET	2.613	-8.004	0.000
								CHANNELS	3	Yrotation	Xrotation	Zrotation
								JOINT	RokokoGuy_RightPinky005
								{
									OFFSET	-0.000	-2.860	0.000
									CHANNELS	3	Yrotation	Xrotation	Zrotation
									JOINT	RokokoGuy_RightPinky006
									{
										OFFSET	0.000	-1.720	0.000
										CHANNELS	3	Yrotation	Xrotation	Zrotation
										End Site
										{
											OFFSET	0.000	-1.977	0.000
										}
									}
								}
							}
							JOINT	RokokoGuy_RightRing004
							{
								OFFSET	0.906	-8.765	0.000
								CHANNELS	3	Yrotation	Xrotation	Zrotation
								JOINT	RokokoGuy_RightRing005
								{
									OFFSET	-0.000	-3.491	0.000
									CHANNELS	3	Yrotation	Xrotation	Zrotation
									JOINT	RokokoGuy_RightRing006
									{
										OFFSET	0.000	-2.373	0.000
										CHANNELS	3	Yrotation	Xrotation	Zrotation
										End Site
										{
											OFFSET	0.000	-2.368	0.000
										}
									}
								}
							}
							JOINT	RokokoGuy_RightThumb004
							{
								OFFSET	-2.146	-2.555	2.160
								CHANNELS	3	Yrotation	Xrotation	Zrotation
								JOINT	RokokoGuy_RightThumb005
								{
									OFFSET	0.000	-3.913	0.000
									CHANNELS	3	Yrotation	Xrotation	Zrotation
									JOINT	RokokoGuy_RightThumb006
									{
										OFFSET	0.000	-2.512	0.000
										CHANNELS	3	Yrotation	Xrotation	Zrotation
										End Site
										{
											OFFSET	-0.000	-2.704	0.000
										}
									}
								}
							}
						}
					}
				}
			}
		}
	}
}
MOTION
Frames:	10
Frame Time:	0.033
-0.000	97.000	-0.019	0.000	-0.000	0.000	270.000	0.000	0.000	0.000	-0.000	-0.000	270.000	90.000	0.000	0.000	0.000	0.000	90.000	-0.000	0.000	0.000	-0.000	0.000	90.000	90.000	0.000	0.000	0.000	0.000	-0.000	-0.000	180.000	0.000	-0.000	0.000	355.000	0.000	270.000	270.000	-0.000	5.000	0.000	0.000	0.000	0.000	0.000	0.000	-0.000	0.000	-0.000	-0.000	-0.000	-0.000	-0.000	-0.000	-0.000	-0.000	0.000	-0.000	-0.000	-0.000	-0.000	-0.000	-0.000	-0.000	-0.000	0.000	-0.000	-0.000	-0.000	-0.000	-0.000	-0.000	-0.000	-0.000	0.000	-0.000	-0.000	-0.000	-0.000	-0.000	-0.000	-0.000	314.950	14.813	35.071	0.000	0.000	-0.000	0.000	0.000	-0.000	-0.000	-0.000	0.000	-0.000	0.000	-0.000	-0.000	0.000	90.000	90.000	0.000	-0.000	0.000	0.000	-0.000	0.000	0.000	-0.000	0.000	0.000	0.000	0.000	-0.000	-0.000	0.000	-0.000	-0.000	0.000	0.000	0.000	0.000	-0.000	-0.000	0.000	-0.000	-0.000	0.000	0.000	0.000	0.000	-0.000	-0.000	0.000	-0.000	-0.000	0.000	0.000	0.000	0.000	-0.000	-0.000	0.000	-0.000	-0.000	45.050	14.813	324.929	0.000	-0.000	-0.000	0.000	-0.000	-0.000	
0.314	97.095	1.178	0.332	0.424	359.846	269.131	0.000	0.002	0.611	359.861	359.093	110.630	88.990	199.619	-0.000	-0.000	-0.000	90.622	0.148	359.981	0.742	359.760	0.777	271.572	89.020	182.388	-0.000	-0.000	-0.000	0.292	359.572	179.966	359.708	0.428	359.966	355.005	359.745	269.759	181.016	275.760	89.854	1.323	359.895	359.406	0.299	359.897	359.504	-0.000	0.000	-0.000	-0.000	-0.000	-0.000	-0.000	-0.000	-0.000	-0.000	0.000	-0.000	-0.000	-0.000	-0.000	-0.000	-0.000	-0.000	-0.000	0.000	-0.000	-0.000	-0.000	-0.000	-0.000	-0.000	-0.000	-0.000	0.000	-0.000	-0.000	-0.000	-0.000	-0.000	-0.000	-0.000	314.950	14.813	35.071	0.000	0.000	-0.000	0.000	0.000	-0.000	359.871	0.218	359.564	359.871	0.218	359.564	0.431	0.180	89.841	345.550	270.535	104.036	0.415	0.087	359.920	1.936	0.315	0.662	0.000	0.000	0.000	0.000	-0.000	-0.000	0.000	-0.000	-0.000	0.000	0.000	0.000	0.000	-0.000	-0.000	0.000	-0.000	-0.000	0.000	0.000	0.000	0.000	-0.000	-0.000	0.000	-0.000	-0.000	0.000	0.000	0.000	0.000	-0.000	-0.000	0.000	-0.000	-0.000	45.050	14.813	324.929	0.000	-0.000	-0.000	0.000	-0.000	-0.000	
0.312	97.093	1.181	0.338	0.430	359.847	269.119	0.009	0.013	0.627	359.861	359.097	110.419	88.993	199.425	-0.000	-0.000	-0.000	90.635	0.152	359.986	0.724	359.751	0.762	271.233	89.017	182.052	-0.000	-0.000	-0.000	0.302	359.574	179.966	359.698	0.426	359.966	355.008	359.744	269.756	181.038	275.777	89.838	1.344	359.890	359.396	0.314	359.896	359.495	-0.000	0.000	-0.000	-0.000	-0.000	-0.000	-0.000	-0.000	-0.000	-0.000	0.000	-0.000	-0.000	-0.000	-0.000	-0.000	-0.000	-0.000	-0.000	0.000	-0.000	-0.000	-0.000	-0.000	-0.000	-0.000	-0.000	-0.000	0.000	-0.000	-0.000	-0.000	-0.000	-0.000	-0.000	-0.000	314.950	14.813	35.071	0.000	0.000	-0.000	0.000	0.000	-0.000	359.873	0.217	359.564	359.873	0.217	359.564	0.436	0.178	89.841	345.723	270.511	103.865	0.385	0.088	359.911	1.946	0.309	0.667	0.000	0.000	0.000	0.000	-0.000	-0.000	0.000	-0.000	-0.000	0.000	0.000	0.000	0.000	-0.000	-0.000	0.000	-0.000	-0.000	0.000	0.000	0.000	0.000	-0.000	-0.000	0.000	-0.000	-0.000	0.000	0.000	0.000	0.000	-0.000	-0.000	0.000	-0.000	-0.000	45.050	14.813	324.929	0.000	-0.000	-0.000	0.000	-0.000	-0.000	
0.310	97.092	1.186	0.350	0.439	359.846	269.119	0.018	0.022	0.608	359.860	359.114	110.239	89.011	199.240	-0.000	-0.000	-0.000	90.641	0.144	359.986	0.702	359.751	0.747	270.908	89.023	181.713	-0.000	-0.000	-0.000	0.298	359.571	179.969	359.702	0.429	359.969	355.002	359.734	269.753	180.980	275.777	89.897	1.357	359.891	359.395	0.331	359.890	359.485	-0.000	0.000	-0.000	-0.000	-0.000	-0.000	-0.000	-0.000	-0.000	-0.000	0.000	-0.000	-0.000	-0.000	-0.000	-0.000	-0.000	-0.000	-0.000	0.000	-0.000	-0.000	-0.000	-0.000	-0.000	-0.000	-0.000	-0.000	0.000	-0.000	-0.000	-0.000	-0.000	-0.000	-0.000	-0.000	314.950	14.813	35.071	0.000	0.000	-0.000	0.000	0.000	-0.000	359.869	0.214	359.559	359.869	0.214	359.559	0.421	0.168	89.832	345.813	270.505	103.774	0.418	0.084	359.923	1.887	0.311	0.640	0.000	0.000	0.000	0.000	-0.000	-0.000	0.000	-0.000	-0.000	0.000	0.000	0.000	0.000	-0.000	-0.000	0.000	-0.000	-0.000	0.000	0.000	0.000	0.000	-0.000	-0.000	0.000	-0.000	-0.000	0.000	0.000	0.000	0.000	-0.000	-0.000	0.000	-0.000	-0.000	45.050	14.813	324.929	0.000	-0.000	-0.000	0.000	-0.000	-0.000	
0.293	97.094	1.189	0.379	0.452	359.845	269.086	0.035	0.048	0.615	359.859	359.115	110.227	89.033	199.219	-0.000	-0.000	-0.000	90.663	0.131	0.004	0.637	359.749	0.700	270.538	89.034	181.347	-0.000	-0.000	-0.000	0.298	359.570	179.973	359.702	0.430	359.973	355.029	359.726	269.753	180.887	275.782	89.994	1.403	359.893	359.369	0.323	359.887	359.484	-0.000	0.000	-0.000	-0.000	-0.000	-0.000	-0.000	-0.000	-0.000	-0.000	0.000	-0.000	-0.000	-0.000	-0.000	-0.000	-0.000	-0.000	-0.000	0.000	-0.000	-0.000	-0.000	-0.000	-0.000	-0.000	-0.000	-0.000	0.000	-0.000	-0.000	-0.000	-0.000	-0.000	-0.000	-0.000	314.950	14.813	35.071	0.000	0.000	-0.000	0.000	0.000	-0.000	359.861	0.205	359.556	359.861	0.205	359.556	0.403	0.147	89.825	346.775	270.515	102.798	0.441	0.077	359.914	1.940	0.303	0.668	0.000	0.000	0.000	0.000	-0.000	-0.000	0.000	-0.000	-0.000	0.000	0.000	0.000	0.000	-0.000	-0.000	0.000	-0.000	-0.000	0.000	0.000	0.000	0.000	-0.000	-0.000	0.000	-0.000	-0.000	0.000	0.000	0.000	0.000	-0.000	-0.000	0.000	-0.000	-0.000	45.050	14.813	324.929	0.000	-0.000	-0.000	0.000	-0.000	-0.000	
0.251	97.096	1.194	0.445	0.473	359.830	269.035	0.058	0.088	0.601	359.871	359.114	109.912	89.058	198.890	-0.000	-0.000	-0.000	90.639	0.097	0.017	0.601	359.748	0.636	269.905	89.067	180.698	-0.000	-0.000	-0.000	0.291	359.583	179.985	359.709	0.417	359.985	355.072	359.736	269.756	180.656	275.780	90.228	1.422	359.894	359.346	0.351	359.881	359.472	-0.000	0.000	-0.000	-0.000	-0.000	-0.000	-0.000	-0.000	-0.000	-0.000	0.000	-0.000	-0.000	-0.000	-0.000	-0.000	-0.000	-0.000	-0.000	0.000	-0.000	-0.000	-0.000	-0.000	-0.000	-0.000	-0.000	-0.000	0.000	-0.000	-0.000	-0.000	-0.000	-0.000	-0.000	-0.000	314.950	14.813	35.071	0.000	0.000	-0.000	0.000	0.000	-0.000	359.861	0.218	359.542	359.861	0.218	359.542	0.396	0.151	89.814	347.495	270.532	102.055	0.446	0.055	359.929	1.869	0.288	0.644	0.000	0.000	0.000	0.000	-0.000	-0.000	0.000	-0.000	-0.000	0.000	0.000	0.000	0.000	-0.000	-0.000	0.000	-0.000	-0.000	0.000	0.000	0.000	0.000	-0.000	-0.000	0.000	-0.000	-0.000	0.000	0.000	0.000	0.000	-0.000	-0.000	0.000	-0.000	-0.000	45.050	14.813	324.929	0.000	-0.000	-0.000	0.000	-0.000	-0.000	
0.215	97.084	1.150	0.574	0.597	359.892	268.963	0.034	0.230	0.589	359.861	359.095	109.493	89.062	198.508	-0.000	-0.000	-0.000	90.524	0.121	359.912	0.669	359.776	0.581	269.596	89.102	180.479	-0.000	-0.000	-0.000	0.264	359.569	179.959	359.736	0.431	359.959	355.136	359.780	269.757	180.273	275.819	90.606	1.439	359.916	359.316	0.399	359.889	359.484	-0.000	0.000	-0.000	-0.000	-0.000	-0.000	-0.000	-0.000	-0.000	-0.000	0.000	-0.000	-0.000	-0.000	-0.000	-0.000	-0.000	-0.000	-0.000	0.000	-0.000	-0.000	-0.000	-0.000	-0.000	-0.000	-0.000	-0.000	0.000	-0.000	-0.000	-0.000	-0.000	-0.000	-0.000	-0.000	314.950	14.813	35.071	0.000	0.000	-0.000	0.000	0.000	-0.000	359.873	0.266	359.527	359.873	0.266	359.527	0.439	0.195	89.828	344.476	270.415	105.092	0.387	0.057	359.881	1.797	0.272	0.625	0.000	0.000	0.000	0.000	-0.000	-0.000	0.000	-0.000	-0.000	0.000	0.000	0.000	0.000	-0.000	-0.000	0.000	-0.000	-0.000	0.000	0.000	0.000	0.000	-0.000	-0.000	0.000	-0.000	-0.000	0.000	0.000	0.000	0.000	-0.000	-0.000	0.000	-0.000	-0.000	45.050	14.813	324.929	0.000	-0.000	-0.000	0.000	-0.000	-0.000	
0.196	97.087	1.140	0.571	0.587	359.896	269.014	0.047	0.220	0.570	359.882	359.123	108.159	89.101	197.186	-0.000	-0.000	-0.000	90.568	0.106	359.935	0.622	359.769	0.546	267.943	89.120	178.838	-0.000	-0.000	-0.000	0.281	359.598	179.960	359.719	0.402	359.960	355.168	359.787	269.765	180.103	275.772	90.754	1.406	359.918	359.319	0.378	359.898	359.478	-0.000	0.000	-0.000	-0.000	-0.000	-0.000	-0.000	-0.000	-0.000	-0.000	0.000	-0.000	-0.000	-0.000	-0.000	-0.000	-0.000	-0.000	-0.000	0.000	-0.000	-0.000	-0.000	-0.000	-0.000	-0.000	-0.000	-0.000	0.000	-0.000	-0.000	-0.000	-0.000	-0.000	-0.000	-0.000	314.950	14.813	35.071	0.000	0.000	-0.000	0.000	0.000	-0.000	359.885	0.298	359.527	359.885	0.298	359.527	0.438	0.199	89.829	345.008	270.445	104.552	0.425	0.044	359.848	1.838	0.259	0.619	0.000	0.000	0.000	0.000	-0.000	-0.000	0.000	-0.000	-0.000	0.000	0.000	0.000	0.000	-0.000	-0.000	0.000	-0.000	-0.000	0.000	0.000	0.000	0.000	-0.000	-0.000	0.000	-0.000	-0.000	0.000	0.000	0.000	0.000	-0.000	-0.000	0.000	-0.000	-0.000	45.050	14.813	324.929	0.000	-0.000	-0.000	0.000	-0.000	-0.000	
0.171	97.087	1.125	0.591	0.578	359.897	269.052	0.065	0.216	0.541	359.884	359.137	108.097	89.127	197.141	-0.000	-0.000	-0.000	90.572	0.091	359.948	0.634	359.762	0.521	266.773	89.137	177.717	-0.000	-0.000	-0.000	0.269	359.620	179.962	359.731	0.380	359.962	355.127	359.754	269.771	180.143	275.809	90.729	1.381	359.912	359.323	0.364	359.903	359.488	-0.000	0.000	-0.000	-0.000	-0.000	-0.000	-0.000	-0.000	-0.000	-0.000	0.000	-0.000	-0.000	-0.000	-0.000	-0.000	-0.000	-0.000	-0.000	0.000	-0.000	-0.000	-0.000	-0.000	-0.000	-0.000	-0.000	-0.000	0.000	-0.000	-0.000	-0.000	-0.000	-0.000	-0.000	-0.000	314.950	14.813	35.071	0.000	0.000	-0.000	0.000	0.000	-0.000	359.867	0.305	359.533	359.867	0.306	359.533	0.407	0.172	89.842	345.029	270.458	104.509	0.461	0.039	359.835	1.796	0.276	0.602	0.000	0.000	0.000	0.000	-0.000	-0.000	0.000	-0.000	-0.000	0.000	0.000	0.000	0.000	-0.000	-0.000	0.000	-0.000	-0.000	0.000	0.000	0.000	0.000	-0.000	-0.000	0.000	-0.000	-0.000	0.000	0.000	0.000	0.000	-0.000	-0.000	0.000	-0.000	-0.000	45.050	14.813	324.929	0.000	-0.000	-0.000	0.000	-0.000	-0.000	
0.136	97.088	1.119	0.592	0.578	359.879	269.080	0.098	0.210	0.543	359.897	359.181	107.611	89.161	196.682	-0.000	-0.000	-0.000	90.587	0.052	359.961	0.650	359.763	0.489	265.509	89.157	176.466	-0.000	-0.000	-0.000	0.275	359.630	179.966	359.725	0.370	359.966	355.112	359.733	269.792	180.106	275.797	90.753	1.321	359.924	359.329	0.340	359.899	359.507	-0.000	0.000	-0.000	-0.000	-0.000	-0.000	-0.000	-0.000	-0.000	-0.000	0.000	-0.000	-0.000	-0.000	-0.000	-0.000	-0.000	-0.000	-0.000	0.000	-0.000	-0.000	-0.000	-0.000	-0.000	-0.000	-0.000	-0.000	0.000	-0.000	-0.000	-0.000	-0.000	-0.000	-0.000	-0.000	314.950	14.813	35.071	0.000	0.000	-0.000	0.000	0.000	-0.000	359.859	0.290	359.555	359.859	0.290	359.555	0.380	0.125	89.867	344.674	270.451	104.835	0.449	0.065	359.813	1.814	0.274	0.615	0.000	0.000	0.000	0.000	-0.000	-0.000	0.000	-0.000	-0.000	0.000	0.000	0.000	0.000	-0.000	-0.000	0.000	-0.000	-0.000	0.000	0.000	0.000	0.000	-0.000	-0.000	0.000	-0.000	-0.000	0.000	0.000	0.000	0.000	-0.000	-0.000	0.000	-0.000	-0.000	45.050	14.813	324.929	0.000	-0.000	-0.000	0.000	-0.000	-0.000	
